<svg width="20" height="20" viewBox="0 0 20 20" fill="none" xmlns="http://www.w3.org/2000/svg">
<path d="M0.712543 19.9932C0.778544 19.9932 0.839468 19.983 0.905468 19.9678L7.14 18.2111C7.40908 18.135 7.65278 17.9928 7.85078 17.7948L19.2283 6.41731C19.7258 5.91976 20 5.25468 20 4.54898C20 3.84328 19.7258 3.18327 19.2283 2.68065L17.3092 0.771702C16.8117 0.274157 16.1466 0 15.4409 0C14.7352 0 14.0752 0.274157 13.5725 0.771702L2.19502 12.1492C1.99702 12.3472 1.85486 12.5909 1.77871 12.86L0.0271503 19.0945C-0.0439274 19.3433 0.0271504 19.6073 0.209922 19.7901C0.341923 19.9221 0.524695 19.9932 0.712543 19.9932ZM7.34816 16.5763L3.42365 12.6518L12.4556 3.61989L16.3801 7.5444L7.34816 16.5763ZM14.4356 1.63479C14.7047 1.36571 15.0601 1.21848 15.4409 1.21848C15.8216 1.21848 16.177 1.36571 16.4461 1.63479L18.3601 3.54881C18.6292 3.81789 18.7764 4.17328 18.7764 4.55405C18.7764 4.93483 18.6292 5.29022 18.3601 5.5593L17.2381 6.68131L13.3136 2.7568L14.4356 1.63479ZM2.79411 13.7485L6.24645 17.2008L1.44363 18.5513L2.79411 13.7485Z" fill="white"/>
</svg>
