<svg width="18" height="18" viewBox="0 0 18 18" fill="none" xmlns="http://www.w3.org/2000/svg">
<path d="M8.99993 6.375C8.68943 6.375 8.43743 6.627 8.43743 6.9375V14.5793L7.14762 13.2898C6.92796 13.0702 6.5719 13.0702 6.35224 13.2898C6.13259 13.5095 6.13259 13.8655 6.35224 14.0852L8.60224 16.3352C8.71221 16.4452 8.85593 16.5 8.99993 16.5C9.14393 16.5 9.28765 16.4452 9.39762 16.3352L11.6476 14.0852C11.8673 13.8655 11.8673 13.5095 11.6476 13.2898C11.428 13.0702 11.0719 13.0702 10.8522 13.2898L9.56243 14.5793V6.9375C9.56243 6.627 9.31043 6.375 8.99993 6.375Z" fill="#2A2A2A"/>
<path d="M15.7292 6.42731C15.4688 3.25341 12.8025 0.75 9.5625 0.75C6.687 0.75 4.20666 2.61609 3.49003 5.25H3.375C1.51397 5.25 0 6.76397 0 8.625C0 10.486 1.51397 12 3.375 12H6.75C7.0605 12 7.3125 11.748 7.3125 11.4375C7.3125 11.127 7.0605 10.875 6.75 10.875H3.375C2.13441 10.875 1.125 9.86559 1.125 8.625C1.125 7.38441 2.13441 6.375 3.375 6.375H3.9375C4.20806 6.375 4.44037 6.18234 4.49044 5.91656C4.93031 3.57459 7.06359 1.875 9.5625 1.875C12.3539 1.875 14.625 4.14609 14.625 6.9375C14.625 7.248 14.877 7.5 15.1875 7.5C16.1182 7.5 16.875 8.25684 16.875 9.1875C16.875 10.1182 16.1182 10.875 15.1875 10.875H11.25C10.9395 10.875 10.6875 11.127 10.6875 11.4375C10.6875 11.748 10.9395 12 11.25 12H15.1875C16.7383 12 18 10.7383 18 9.1875C18 7.82203 17.0215 6.68044 15.7292 6.42731Z" fill="#2A2A2A"/>
</svg>
