<svg width="18" height="18" viewBox="0 0 18 18" fill="none" xmlns="http://www.w3.org/2000/svg">
<path d="M16.9398 2.93311C15.5264 1.51977 13.2206 1.51979 11.8073 2.93311L3.39824 11.3422C2.5602 12.1802 2.55924 13.5608 3.39755 14.3989C4.23559 15.2369 5.61622 15.236 6.45425 14.3982L12.9511 7.90133L11.972 6.92235L5.47519 13.4192C5.16262 13.7317 4.68918 13.7326 4.37662 13.4198C4.06404 13.1072 4.065 12.6338 4.37731 12.3212L12.7864 3.91218C13.6742 3.02432 15.0728 3.02432 15.9607 3.91218C16.8486 4.80003 16.8495 6.19962 15.9614 7.08748L7.72251 15.3263C6.25934 16.7895 3.93374 16.7886 2.47055 15.3256C1.00737 13.8625 1.00737 11.5378 2.47055 10.0747L11.5661 0.979062L10.587 0L1.49149 9.09559C-0.497162 11.0842 -0.497162 14.3161 1.49148 16.3047C3.48013 18.2933 6.71293 18.2943 8.70157 16.3054L16.9405 8.06654C18.3538 6.65322 18.3528 4.34643 16.9398 2.93311H16.9398Z" fill="#2A2A2A"/>
</svg>
